<svg xmlns="http://www.w3.org/2000/svg" viewBox="0 0 1341.28 232.21"><defs><style>.cls-1{fill:#fed136;}</style></defs><g id="Layer_2" data-name="Layer 2"><g id="Layer_1-2" data-name="Layer 1"><path class="cls-1" d="M80.65,63.44a24.05,24.05,0,0,1-2.13,9.34,33.74,33.74,0,0,1-6.69,9.88,34.27,34.27,0,0,1-11.66,7.87,42.09,42.09,0,0,1-16.54,3,57.46,57.46,0,0,1-13-1.36A36.28,36.28,0,0,1,20,88a35.83,35.83,0,0,1-8.79-7.55,44.91,44.91,0,0,1-6.11-9.54A49.41,49.41,0,0,1,1.27,59.61,60.93,60.93,0,0,1,0,46.9,56.36,56.36,0,0,1,3.18,27.34a41.7,41.7,0,0,1,9.1-14.78A39.68,39.68,0,0,1,26.16,3.21,45,45,0,0,1,43.13,0,42.43,42.43,0,0,1,62.7,4.38,35.49,35.49,0,0,1,75.84,15.21q4.56,6.45,4.57,12.19A7.94,7.94,0,0,1,78.18,33a7,7,0,0,1-5.36,2.41,7.42,7.42,0,0,1-5.28-1.67A23,23,0,0,1,63.62,28a27.62,27.62,0,0,0-8.42-10,20.51,20.51,0,0,0-11.94-3.34q-11.3,0-18,8.58t-6.7,24.38q0,10.54,3,17.55a22.11,22.11,0,0,0,8.39,10.46A23.12,23.12,0,0,0,42.64,79,22.32,22.32,0,0,0,56,75.07a23.66,23.66,0,0,0,8.24-11.51,19.46,19.46,0,0,1,2.9-5.83q1.73-2.25,5.55-2.25a7.79,7.79,0,0,1,5.62,2.28A7.6,7.6,0,0,1,80.65,63.44Z"/><path class="cls-1" d="M159,59.3a39.94,39.94,0,0,1-2.34,13.89,30.89,30.89,0,0,1-6.79,10.92,29.9,29.9,0,0,1-10.62,7,37.39,37.39,0,0,1-13.88,2.44,36.36,36.36,0,0,1-13.76-2.47A30.34,30.34,0,0,1,94.26,73.15,39.73,39.73,0,0,1,91.94,59.3a40.3,40.3,0,0,1,2.35-14A30.44,30.44,0,0,1,101,34.43a29.69,29.69,0,0,1,10.61-6.94,40.13,40.13,0,0,1,27.64,0,30.15,30.15,0,0,1,10.68,7,30.47,30.47,0,0,1,6.76,10.86A40,40,0,0,1,159,59.3Zm-16.91,0q0-10.3-4.53-16a14.73,14.73,0,0,0-12.19-5.74,15.08,15.08,0,0,0-8.7,2.56,16.26,16.26,0,0,0-5.8,7.56,30.71,30.71,0,0,0-2,11.66,30.47,30.47,0,0,0,2,11.54,16.51,16.51,0,0,0,5.74,7.56A14.89,14.89,0,0,0,125.39,81a14.71,14.71,0,0,0,12.19-5.77Q142.11,69.49,142.11,59.3Z"/><path class="cls-1" d="M228.32,60.54v22.4c0,3.53-.8,6.19-2.41,8a8.18,8.18,0,0,1-6.35,2.65,8,8,0,0,1-6.21-2.65c-1.58-1.77-2.37-4.43-2.37-8V56.09a88.12,88.12,0,0,0-.43-9.87,10.66,10.66,0,0,0-2.35-5.77q-1.9-2.25-6-2.25-8.27,0-10.89,5.67t-2.62,16.3V82.94c0,3.49-.79,6.14-2.37,7.92a8.64,8.64,0,0,1-12.53,0c-1.63-1.78-2.44-4.43-2.44-7.92V34.74c0-3.17.73-5.57,2.19-7.22a7.37,7.37,0,0,1,5.77-2.47A7.79,7.79,0,0,1,185,27.37a8.63,8.63,0,0,1,2.32,6.38v1.61a29.16,29.16,0,0,1,9.37-7.71,24.73,24.73,0,0,1,11.11-2.47,22.15,22.15,0,0,1,10.92,2.53,19.65,19.65,0,0,1,7.53,7.65,29.16,29.16,0,0,1,9.14-7.68,23.21,23.21,0,0,1,10.79-2.5,24.59,24.59,0,0,1,11.91,2.71,17.19,17.19,0,0,1,7.47,7.78q2.16,4.56,2.16,14.38V82.94c0,3.53-.8,6.19-2.41,8a8.79,8.79,0,0,1-12.62,0c-1.62-1.78-2.43-4.43-2.43-7.92V54.61a64.44,64.44,0,0,0-.47-8.7,10,10,0,0,0-2.49-5.49q-2-2.22-6.18-2.22a11.32,11.32,0,0,0-6.32,2,13.41,13.41,0,0,0-4.66,5.31Q228.33,49.74,228.32,60.54Z"/><path class="cls-1" d="M299.65,34.49v2a33.22,33.22,0,0,1,9.88-8.61,24.15,24.15,0,0,1,11.6-2.74,26.8,26.8,0,0,1,14.31,4,27.62,27.62,0,0,1,10.34,11.72,41,41,0,0,1,3.79,18.27,44.55,44.55,0,0,1-2.19,14.28,32.17,32.17,0,0,1-6,10.93,26.26,26.26,0,0,1-9,6.78,26.61,26.61,0,0,1-11.2,2.38A23.5,23.5,0,0,1,309,90.65a34.64,34.64,0,0,1-9.35-8.52v25.3q0,11.11-8.08,11.11-4.76,0-6.29-2.87t-1.55-8.36V34.62q0-4.81,2.1-7.19a7.28,7.28,0,0,1,5.74-2.38,7.6,7.6,0,0,1,5.83,2.44Q299.65,29.94,299.65,34.49Zm33,24.5a29,29,0,0,0-2-11.44A16.81,16.81,0,0,0,325,40.2a13.53,13.53,0,0,0-8-2.56,15,15,0,0,0-11.75,5.49q-4.78,5.5-4.78,16.17,0,10.07,4.75,15.64A14.83,14.83,0,0,0,317,80.53a13.52,13.52,0,0,0,7.78-2.44,16.77,16.77,0,0,0,5.74-7.31A29,29,0,0,0,332.67,59Z"/><path class="cls-1" d="M405.67,84.05a52.55,52.55,0,0,1-11.82,7.12,32.92,32.92,0,0,1-12.8,2.38A24.36,24.36,0,0,1,369.66,91a18.77,18.77,0,0,1-7.56-6.94,18,18,0,0,1-2.65-9.51,17,17,0,0,1,4.38-11.78,21.89,21.89,0,0,1,12-6.54q1.61-.37,8-1.67t10.89-2.38q4.55-1.08,9.85-2.62-.31-6.66-2.69-9.78T392,36.65q-6.42,0-9.66,1.79a15.76,15.76,0,0,0-5.55,5.37,55,55,0,0,1-3.27,4.72c-.64.77-2,1.14-4.11,1.14a7.14,7.14,0,0,1-4.9-1.82,5.91,5.91,0,0,1-2.07-4.65,14.21,14.21,0,0,1,3.15-8.64q3.15-4.2,9.81-6.91T392,24.93q11.1,0,17.46,2.62a16.26,16.26,0,0,1,9,8.3q2.63,5.68,2.62,15.06,0,5.93,0,10.06c0,2.75-.05,5.82-.09,9.19a33.88,33.88,0,0,0,1.57,9.91,31.26,31.26,0,0,1,1.58,6.63,6.22,6.22,0,0,1-2.44,4.72,8.18,8.18,0,0,1-5.52,2.13A7.41,7.41,0,0,1,411,91.11,35.9,35.9,0,0,1,405.67,84.05Zm-1.11-24.38a84.46,84.46,0,0,1-10.77,2.87q-7.07,1.51-9.78,2.22a13.44,13.44,0,0,0-5.19,2.78,7.13,7.13,0,0,0-2.46,5.77,8.52,8.52,0,0,0,2.9,6.51,10.71,10.71,0,0,0,7.59,2.68,19.74,19.74,0,0,0,9.22-2.19,14.57,14.57,0,0,0,6.2-5.64q2.28-3.83,2.29-12.59Z"/><path class="cls-1" d="M453.49,34.37v2a29.42,29.42,0,0,1,9.72-8.61,25.9,25.9,0,0,1,12.12-2.75A24.2,24.2,0,0,1,487.24,28a18.46,18.46,0,0,1,7.84,8.21,19.58,19.58,0,0,1,2.16,6.67,68.9,68.9,0,0,1,.49,9.13V83.31q0,5.06-2.31,7.65a7.68,7.68,0,0,1-6,2.59,7.81,7.81,0,0,1-6.11-2.65Q481,88.24,481,83.31V55.23q0-8.34-2.31-12.74t-9.23-4.42a13.68,13.68,0,0,0-8.21,2.69,15.55,15.55,0,0,0-5.43,7.37q-1.23,3.76-1.23,14.07V83.31q0,5.11-2.38,7.68A8,8,0,0,1,446,93.55a7.65,7.65,0,0,1-6-2.65q-2.35-2.66-2.35-7.59V34.62q0-4.81,2.1-7.19a7.28,7.28,0,0,1,5.74-2.38,7.77,7.77,0,0,1,4,1.05,7.54,7.54,0,0,1,2.87,3.15A11.1,11.1,0,0,1,453.49,34.37Z"/><path class="cls-1" d="M530.07,95.65l1.54-3.77-20.73-52.2c-1.28-3-1.91-5.19-1.91-6.54a7.65,7.65,0,0,1,1.11-4,8.21,8.21,0,0,1,3.05-3,8,8,0,0,1,4-1.11,6.58,6.58,0,0,1,5.49,2.32A21.26,21.26,0,0,1,525.94,34l14.25,41.47L553.7,36.9a68,68,0,0,1,2.9-7.34A8.69,8.69,0,0,1,559.35,26a7.59,7.59,0,0,1,4.1-.93,7.25,7.25,0,0,1,3.68,1,7.16,7.16,0,0,1,2.71,2.75,7.37,7.37,0,0,1,1,3.64q-.25,1.17-.81,3.33t-1.35,4.38l-22,57.51a67.11,67.11,0,0,1-5.55,11.91,18.36,18.36,0,0,1-7.19,6.64q-4.48,2.31-12.07,2.31-7.4,0-11.11-1.6a5.87,5.87,0,0,1-3.7-5.87,5.7,5.7,0,0,1,1.76-4.47A7.59,7.59,0,0,1,514,105a9.53,9.53,0,0,1,2.65.37,13,13,0,0,0,2.78.37,9.94,9.94,0,0,0,4.56-.87,7.9,7.9,0,0,0,3-3A45.33,45.33,0,0,0,530.07,95.65Z"/><path class="cls-1" d="M640.4,53.32H634V82.38c0,3.83-.85,6.64-2.53,8.45a8.63,8.63,0,0,1-6.61,2.72,8.43,8.43,0,0,1-6.79-2.84q-2.4-2.83-2.4-8.33V12.77c0-3.95.88-6.8,2.65-8.57s4.63-2.66,8.58-2.66h29.8a90.39,90.39,0,0,1,10.56.53,26.44,26.44,0,0,1,7.89,2.13,22.83,22.83,0,0,1,7.53,5.12,22.4,22.4,0,0,1,5,7.74,25.85,25.85,0,0,1,1.7,9.35q0,10.12-5.71,16.17t-17.31,8.58a33.4,33.4,0,0,1,9.32,7.65,77.76,77.76,0,0,1,7.93,10.77A80.78,80.78,0,0,1,689,79.88c1.29,3.07,1.94,5.17,1.94,6.33a6.45,6.45,0,0,1-1.14,3.54,7.94,7.94,0,0,1-3.12,2.78,9.76,9.76,0,0,1-4.56,1,9,9,0,0,1-5.19-1.45,14.17,14.17,0,0,1-3.61-3.67q-1.5-2.22-4.1-6.54l-7.34-12.22a67.61,67.61,0,0,0-7.07-10.25,17.55,17.55,0,0,0-6.32-4.81A21.87,21.87,0,0,0,640.4,53.32Zm10.49-38H634V40.17H650.4A46.12,46.12,0,0,0,661.51,39a13.06,13.06,0,0,0,6.88-3.89,11.19,11.19,0,0,0,2.37-7.56,11.41,11.41,0,0,0-7.22-10.92Q660.33,15.31,650.89,15.3Z"/><path class="cls-1" d="M749.38,63.44h-33a22.42,22.42,0,0,0,2.31,10.12A15.5,15.5,0,0,0,733,82.38a20.35,20.35,0,0,0,5.53-.71,17.84,17.84,0,0,0,4.84-2.22,37.14,37.14,0,0,0,4.32-3.24c1.32-1.15,3-2.72,5.12-4.69a5.55,5.55,0,0,1,3.71-1.11,6.08,6.08,0,0,1,4.19,1.42,5.06,5.06,0,0,1,1.61,4,11,11,0,0,1-1.79,5.34,21.46,21.46,0,0,1-5.4,5.86A31,31,0,0,1,746,91.7a39.2,39.2,0,0,1-12.56,1.85q-16.23,0-25.24-9.26t-9-25.11a42,42,0,0,1,2.22-13.86,30.61,30.61,0,0,1,6.48-11,28.13,28.13,0,0,1,10.49-7,37.56,37.56,0,0,1,13.82-2.44q9.88,0,16.94,4.17a27.4,27.4,0,0,1,10.59,10.76,28.4,28.4,0,0,1,3.51,13.46c0,4.23-1.21,7-3.64,8.23S753.78,63.44,749.38,63.44Zm-33-9.57H747q-.62-8.64-4.66-12.93a13.93,13.93,0,0,0-10.64-4.29A13.49,13.49,0,0,0,721.33,41C718.64,43.91,717,48.19,716.43,53.87Z"/><path class="cls-1" d="M837.74,37.39V86.33A51.42,51.42,0,0,1,836,100.77a23.28,23.28,0,0,1-5.74,10,24.18,24.18,0,0,1-10.34,5.86A56.41,56.41,0,0,1,804,118.54a46.1,46.1,0,0,1-15.55-2.44,26.78,26.78,0,0,1-10.55-6.29c-2.47-2.57-3.7-5.22-3.7-7.93a6.57,6.57,0,0,1,2.09-5,7.17,7.17,0,0,1,5.06-1.94,8.29,8.29,0,0,1,6.48,3.27c.91,1.11,1.84,2.23,2.81,3.36a16.53,16.53,0,0,0,3.21,2.9,12.53,12.53,0,0,0,4.23,1.79,24.63,24.63,0,0,0,5.67.59c4.36,0,7.75-.61,10.15-1.82A10.36,10.36,0,0,0,819,99.9a20.26,20.26,0,0,0,1.7-7q.26-3.74.37-12a27.58,27.58,0,0,1-9,8.27A24.52,24.52,0,0,1,799.92,92a25.57,25.57,0,0,1-14.78-4.32,27.53,27.53,0,0,1-9.72-12.1,44.56,44.56,0,0,1-3.39-18,42.8,42.8,0,0,1,2.06-13.7A28.76,28.76,0,0,1,780,33.63a25.07,25.07,0,0,1,8.82-6.32,27.71,27.71,0,0,1,11-2.13,26.42,26.42,0,0,1,12.41,2.74A30.3,30.3,0,0,1,822,36.53V34.25a9.81,9.81,0,0,1,2.16-6.79,7.14,7.14,0,0,1,5.55-2.41q4.88,0,6.48,3.18C837.21,30.35,837.74,33.41,837.74,37.39ZM788.93,58.75q0,10.23,4.48,15.48A14.49,14.49,0,0,0,805,79.48a15.11,15.11,0,0,0,7.93-2.25A16.58,16.58,0,0,0,819,70.44a23.8,23.8,0,0,0,2.34-11q0-10.31-4.54-16a14.46,14.46,0,0,0-11.94-5.74,14,14,0,0,0-11.57,5.49Q788.93,48.63,788.93,58.75Z"/><path class="cls-1" d="M863.29,17.22a8.87,8.87,0,0,1-6-2.16A7.63,7.63,0,0,1,854.78,9a7.6,7.6,0,0,1,2.56-5.9A8.6,8.6,0,0,1,863.29.74a8.81,8.81,0,0,1,5.8,2.1A7.47,7.47,0,0,1,871.62,9,7.7,7.7,0,0,1,869.15,15,8.53,8.53,0,0,1,863.29,17.22Zm8.33,17.4V83.31q0,5.06-2.4,7.65a8,8,0,0,1-6.11,2.59,7.63,7.63,0,0,1-6-2.65q-2.31-2.66-2.31-7.59V35.11q0-5,2.31-7.53a7.8,7.8,0,0,1,6-2.53,8.1,8.1,0,0,1,6.11,2.53A9.84,9.84,0,0,1,871.62,34.62Z"/><path class="cls-1" d="M943.27,71.52A19.56,19.56,0,0,1,929.84,91a45.07,45.07,0,0,1-16.13,2.56,39.37,39.37,0,0,1-15.55-2.78q-6.48-2.77-9.57-6.94a14,14,0,0,1-3.08-8.36,6.45,6.45,0,0,1,2-4.75,6.77,6.77,0,0,1,5-2,5.79,5.79,0,0,1,4.07,1.3,14.24,14.24,0,0,1,2.72,3.64,18.56,18.56,0,0,0,6.2,6.73q3.62,2.22,9.84,2.22a14.17,14.17,0,0,0,8.3-2.26c2.16-1.5,3.24-3.21,3.24-5.15a7,7,0,0,0-3.36-6.48q-3.36-2-11.08-3.89a91.18,91.18,0,0,1-14.16-4.53,23.29,23.29,0,0,1-8.73-6.26,14.37,14.37,0,0,1-3.27-9.57,16.89,16.89,0,0,1,3-9.56,20.72,20.72,0,0,1,8.92-7.19,34.14,34.14,0,0,1,14.22-2.69,47,47,0,0,1,11.76,1.36,29.63,29.63,0,0,1,8.7,3.64,17.93,17.93,0,0,1,5.3,5.06A9.84,9.84,0,0,1,940,40.54a6.23,6.23,0,0,1-1.94,4.75,7.66,7.66,0,0,1-5.52,1.85,6.74,6.74,0,0,1-4.41-1.48A28,28,0,0,1,924,41.22a15.36,15.36,0,0,0-4.5-3.95,14.2,14.2,0,0,0-7-1.48,13.84,13.84,0,0,0-7.59,1.94c-2,1.3-3,2.91-3,4.85A5.24,5.24,0,0,0,904,46.93a18.51,18.51,0,0,0,6,2.81q3.76,1.11,10.37,2.71A55.64,55.64,0,0,1,933.18,57a21.17,21.17,0,0,1,7.52,6.26A13.88,13.88,0,0,1,943.27,71.52Z"/><path class="cls-1" d="M958.45,26.53h1.85V16.41q0-4.07.21-6.38a9.46,9.46,0,0,1,1.21-4,7.56,7.56,0,0,1,2.83-2.81,8.09,8.09,0,0,1,4.14-1.08,8.3,8.3,0,0,1,5.8,2.41,7.14,7.14,0,0,1,2.19,3.91,35.65,35.65,0,0,1,.46,6.58V26.53h6.17a7.88,7.88,0,0,1,5.46,1.7,5.58,5.58,0,0,1,1.89,4.35A4.87,4.87,0,0,1,988,37.33a17.34,17.34,0,0,1-7.68,1.36h-3.15v31a51.34,51.34,0,0,0,.28,6.08,6.2,6.2,0,0,0,1.48,3.45,5,5,0,0,0,3.92,1.33,21,21,0,0,0,4-.53,21.57,21.57,0,0,1,3.95-.52,5.1,5.1,0,0,1,3.67,1.63,5.52,5.52,0,0,1,1.64,4q0,4.07-4.45,6.23t-12.77,2.16q-7.9,0-12-2.65a12.29,12.29,0,0,1-5.34-7.35A49.94,49.94,0,0,1,960.3,71V38.69h-2.22A8.05,8.05,0,0,1,952.52,37a5.65,5.65,0,0,1-1.91-4.38,5.45,5.45,0,0,1,2-4.35A8.83,8.83,0,0,1,958.45,26.53Z"/><path class="cls-1" d="M1019,69.24V83.31q0,5.11-2.41,7.68a8,8,0,0,1-6.1,2.56,7.7,7.7,0,0,1-6-2.59c-1.56-1.73-2.35-4.28-2.35-7.65V36.41q0-11.35,8.21-11.36c2.8,0,4.81.89,6,2.66s1.91,4.38,2,7.83a29.4,29.4,0,0,1,6.2-7.83,12.79,12.79,0,0,1,8.48-2.66,21.75,21.75,0,0,1,10.31,2.66q5,2.66,5,7a7.08,7.08,0,0,1-6.73,7.1,21.07,21.07,0,0,1-4.47-1.14,20.94,20.94,0,0,0-6.27-1.15,9.16,9.16,0,0,0-6,2,12.52,12.52,0,0,0-3.64,5.77,40.48,40.48,0,0,0-1.79,9.1Q1019,61.65,1019,69.24Z"/><path class="cls-1" d="M1097,84.05a52.12,52.12,0,0,1-11.82,7.12,32.88,32.88,0,0,1-12.8,2.38A24.39,24.39,0,0,1,1061,91a18.68,18.68,0,0,1-7.55-6.94,18,18,0,0,1-2.66-9.51,17,17,0,0,1,4.38-11.78,21.92,21.92,0,0,1,12-6.54q1.6-.37,8-1.67t10.89-2.38q4.53-1.08,9.84-2.62-.32-6.66-2.68-9.78t-9.85-3.12q-6.4,0-9.65,1.79a15.87,15.87,0,0,0-5.56,5.37,55,55,0,0,1-3.27,4.72c-.64.77-2,1.14-4.1,1.14a7.17,7.17,0,0,1-4.91-1.82,5.9,5.9,0,0,1-2.06-4.65,14.2,14.2,0,0,1,3.14-8.64q3.15-4.2,9.81-6.91t16.6-2.72q11.11,0,17.47,2.62a16.29,16.29,0,0,1,9,8.3q2.61,5.68,2.62,15.06,0,5.93,0,10.06c0,2.75,0,5.82-.1,9.19a33.91,33.91,0,0,0,1.58,9.91,31,31,0,0,1,1.57,6.63,6.19,6.19,0,0,1-2.44,4.72,8.14,8.14,0,0,1-5.52,2.13,7.43,7.43,0,0,1-5.12-2.44A35.9,35.9,0,0,1,1097,84.05Zm-1.11-24.38a84.46,84.46,0,0,1-10.77,2.87q-7.07,1.51-9.78,2.22a13.34,13.34,0,0,0-5.18,2.78,7.1,7.1,0,0,0-2.47,5.77,8.56,8.56,0,0,0,2.9,6.51,10.71,10.71,0,0,0,7.59,2.68,19.79,19.79,0,0,0,9.23-2.19,14.69,14.69,0,0,0,6.2-5.64q2.28-3.83,2.28-12.59Z"/><path class="cls-1" d="M1127.34,26.53h1.85V16.41q0-4.07.22-6.38a9.31,9.31,0,0,1,1.2-4,7.59,7.59,0,0,1,2.84-2.81,8,8,0,0,1,4.13-1.08,8.28,8.28,0,0,1,5.8,2.41,7,7,0,0,1,2.19,3.91,35.49,35.49,0,0,1,.47,6.58V26.53h6.17a7.92,7.92,0,0,1,5.46,1.7,5.6,5.6,0,0,1,1.88,4.35,4.86,4.86,0,0,1-2.68,4.75,17.36,17.36,0,0,1-7.69,1.36H1146v31a51.76,51.76,0,0,0,.27,6.08,6.14,6.14,0,0,0,1.49,3.45,5,5,0,0,0,3.91,1.33,21.1,21.1,0,0,0,4-.53,21.49,21.49,0,0,1,3.94-.52,5.12,5.12,0,0,1,3.68,1.63,5.51,5.51,0,0,1,1.63,4q0,4.07-4.44,6.23t-12.78,2.16q-7.89,0-12-2.65a12.32,12.32,0,0,1-5.33-7.35A49.41,49.41,0,0,1,1129.19,71V38.69H1127a8,8,0,0,1-5.55-1.73,5.63,5.63,0,0,1-1.92-4.38,5.43,5.43,0,0,1,2-4.35A8.81,8.81,0,0,1,1127.34,26.53Z"/><path class="cls-1" d="M1179.67,17.22a8.9,8.9,0,0,1-6-2.16,7.66,7.66,0,0,1-2.5-6.11,7.63,7.63,0,0,1,2.56-5.9,8.64,8.64,0,0,1,6-2.31,8.83,8.83,0,0,1,5.8,2.1A7.47,7.47,0,0,1,1188,9a7.7,7.7,0,0,1-2.47,6.08A8.55,8.55,0,0,1,1179.67,17.22Zm8.33,17.4V83.31q0,5.06-2.41,7.65a8,8,0,0,1-6.11,2.59,7.61,7.61,0,0,1-6-2.65q-2.33-2.66-2.32-7.59V35.11q0-5,2.32-7.53a7.78,7.78,0,0,1,6-2.53,8.08,8.08,0,0,1,6.11,2.53A9.8,9.8,0,0,1,1188,34.62Z"/><path class="cls-1" d="M1268.47,59.3a39.94,39.94,0,0,1-2.35,13.89,30.75,30.75,0,0,1-6.79,10.92,30,30,0,0,1-10.61,7,37.41,37.41,0,0,1-13.89,2.44,36.39,36.39,0,0,1-13.76-2.47,30.34,30.34,0,0,1-17.37-17.93,39.73,39.73,0,0,1-2.31-13.85,40.3,40.3,0,0,1,2.34-14,30.72,30.72,0,0,1,6.73-10.86,29.78,29.78,0,0,1,10.61-6.94,40.15,40.15,0,0,1,27.65,0,29.91,29.91,0,0,1,17.43,17.9A40,40,0,0,1,1268.47,59.3Zm-16.91,0q0-10.3-4.54-16a14.71,14.71,0,0,0-12.19-5.74,15.08,15.08,0,0,0-8.7,2.56,16.26,16.26,0,0,0-5.8,7.56,30.91,30.91,0,0,0-2,11.66,30.67,30.67,0,0,0,2,11.54A16.58,16.58,0,0,0,1226,78.4a14.89,14.89,0,0,0,8.79,2.62A14.68,14.68,0,0,0,1247,75.25Q1251.57,69.49,1251.56,59.3Z"/><path class="cls-1" d="M1297,34.37v2a29.42,29.42,0,0,1,9.72-8.61,25.84,25.84,0,0,1,12.12-2.75,24.25,24.25,0,0,1,11.91,2.9,18.46,18.46,0,0,1,7.84,8.21,19.58,19.58,0,0,1,2.16,6.67,68.9,68.9,0,0,1,.49,9.13V83.31q0,5.06-2.31,7.65a7.7,7.7,0,0,1-6,2.59,7.79,7.79,0,0,1-6.11-2.65q-2.34-2.66-2.34-7.59V55.23q0-8.34-2.32-12.74T1313,38.07a13.66,13.66,0,0,0-8.21,2.69,15.43,15.43,0,0,0-5.43,7.37q-1.23,3.76-1.23,14.07V83.31c0,3.41-.8,6-2.38,7.68a8,8,0,0,1-6.14,2.56,7.67,7.67,0,0,1-6-2.65q-2.34-2.66-2.34-7.59V34.62q0-4.81,2.1-7.19a7.28,7.28,0,0,1,5.74-2.38,7.79,7.79,0,0,1,4,1.05,7.54,7.54,0,0,1,2.87,3.15A11.1,11.1,0,0,1,1297,34.37Z"/><path class="cls-1" d="M373.58,202.1a24.1,24.1,0,0,1-2.13,9.35,33.83,33.83,0,0,1-6.69,9.87,34.31,34.31,0,0,1-11.67,7.87,42,42,0,0,1-16.54,3,58.12,58.12,0,0,1-13-1.35,36.89,36.89,0,0,1-10.64-4.23,35.66,35.66,0,0,1-8.79-7.56,44.7,44.7,0,0,1-6.11-9.53,49.51,49.51,0,0,1-3.8-11.27,61.56,61.56,0,0,1-1.26-12.71A56.36,56.36,0,0,1,296.11,166a41.65,41.65,0,0,1,9.1-14.78,39.72,39.72,0,0,1,13.88-9.35,44.94,44.94,0,0,1,17-3.21,42.29,42.29,0,0,1,19.56,4.39,35.44,35.44,0,0,1,13.15,10.83c3,4.29,4.56,8.36,4.56,12.18a8,8,0,0,1-2.22,5.56,7,7,0,0,1-5.37,2.4,7.4,7.4,0,0,1-5.27-1.66,23,23,0,0,1-3.92-5.74,27.59,27.59,0,0,0-8.43-10.06,20.58,20.58,0,0,0-11.94-3.33q-11.28,0-18,8.57t-6.7,24.38q0,10.55,3,17.56a22.21,22.21,0,0,0,8.4,10.45,23.07,23.07,0,0,0,12.71,3.46,22.27,22.27,0,0,0,13.36-3.92,23.65,23.65,0,0,0,8.23-11.51,19.58,19.58,0,0,1,2.91-5.83q1.73-2.25,5.55-2.25a7.75,7.75,0,0,1,5.61,2.28A7.6,7.6,0,0,1,373.58,202.1Z"/><path class="cls-1" d="M452,198a39.65,39.65,0,0,1-2.35,13.88,30.55,30.55,0,0,1-6.78,10.92,30.11,30.11,0,0,1-10.62,7,37.6,37.6,0,0,1-13.88,2.43,36.55,36.55,0,0,1-13.76-2.46,30.34,30.34,0,0,1-17.37-17.93A39.54,39.54,0,0,1,384.87,198a40.07,40.07,0,0,1,2.35-14,30.38,30.38,0,0,1,6.72-10.86,29.6,29.6,0,0,1,10.62-6.94,40.13,40.13,0,0,1,27.64,0,30.13,30.13,0,0,1,10.68,7,30.48,30.48,0,0,1,6.75,10.86A39.85,39.85,0,0,1,452,198ZM435,198q0-10.31-4.54-16.05a14.73,14.73,0,0,0-12.18-5.74,15.15,15.15,0,0,0-8.7,2.56,16.2,16.2,0,0,0-5.8,7.56,30.76,30.76,0,0,0-2,11.67,30.42,30.42,0,0,0,2,11.53,16.39,16.39,0,0,0,5.73,7.56,14.91,14.91,0,0,0,8.8,2.63,14.7,14.7,0,0,0,12.18-5.77Q435,208.15,435,198Z"/><path class="cls-1" d="M480.52,173v2a29.42,29.42,0,0,1,9.72-8.61,25.9,25.9,0,0,1,12.12-2.74,24.09,24.09,0,0,1,11.91,2.9,18.41,18.41,0,0,1,7.84,8.21,19.45,19.45,0,0,1,2.16,6.66,69,69,0,0,1,.49,9.13V222q0,5.06-2.31,7.65a7.68,7.68,0,0,1-6,2.59,7.77,7.77,0,0,1-6.11-2.65Q508,226.9,508,222V193.89q0-8.32-2.32-12.74t-9.22-4.41a13.67,13.67,0,0,0-8.21,2.68,15.41,15.41,0,0,0-5.43,7.38q-1.23,3.76-1.23,14.07V222q0,5.13-2.38,7.68a8,8,0,0,1-6.14,2.56,7.61,7.61,0,0,1-6-2.65q-2.35-2.66-2.35-7.59V173.28c0-3.21.7-5.6,2.1-7.19a7.27,7.27,0,0,1,5.74-2.37,7.77,7.77,0,0,1,4,1.05,7.57,7.57,0,0,1,2.87,3.14A11.12,11.12,0,0,1,480.52,173Z"/><path class="cls-1" d="M595.79,210.18a19.53,19.53,0,0,1-13.42,19.47,44.87,44.87,0,0,1-16.14,2.56,39.37,39.37,0,0,1-15.55-2.77q-6.48-2.77-9.56-6.95a14,14,0,0,1-3.09-8.36,6.47,6.47,0,0,1,2-4.75,6.78,6.78,0,0,1,5-2,5.87,5.87,0,0,1,4.08,1.29,14.4,14.4,0,0,1,2.71,3.64,18.48,18.48,0,0,0,6.2,6.73q3.62,2.22,9.85,2.22a14.24,14.24,0,0,0,8.3-2.25c2.16-1.5,3.23-3.22,3.23-5.15a7,7,0,0,0-3.36-6.48q-3.36-2-11.07-3.89A90.89,90.89,0,0,1,550.77,199a23.29,23.29,0,0,1-8.73-6.26,14.35,14.35,0,0,1-3.27-9.56,16.9,16.9,0,0,1,3-9.57,20.8,20.8,0,0,1,8.92-7.19,34.16,34.16,0,0,1,14.23-2.68,46.48,46.48,0,0,1,11.75,1.36,28.88,28.88,0,0,1,8.7,3.64,18,18,0,0,1,5.31,5.06,9.92,9.92,0,0,1,1.82,5.43,6.27,6.27,0,0,1-1.95,4.75,7.69,7.69,0,0,1-5.52,1.85,6.74,6.74,0,0,1-4.41-1.48,29.93,29.93,0,0,1-4.17-4.44,15,15,0,0,0-4.5-3.95,14.15,14.15,0,0,0-7-1.49,13.72,13.72,0,0,0-7.59,2c-2,1.29-3,2.91-3,4.84a5.24,5.24,0,0,0,2.22,4.35,18.27,18.27,0,0,0,6,2.81q3.76,1.11,10.37,2.72a55.11,55.11,0,0,1,12.8,4.56,21.32,21.32,0,0,1,7.53,6.27A13.91,13.91,0,0,1,595.79,210.18Z"/><path class="cls-1" d="M653.79,222.71v-2.16a37.53,37.53,0,0,1-6.35,6.42,23.53,23.53,0,0,1-7.28,3.86,29.67,29.67,0,0,1-9,1.26,23.3,23.3,0,0,1-11-2.53,18.49,18.49,0,0,1-7.49-7q-3.15-5.37-3.15-15.43V173.78q0-5.07,2.28-7.56a7.79,7.79,0,0,1,6-2.5,8,8,0,0,1,6.17,2.53c1.56,1.69,2.35,4.19,2.35,7.53v27a42,42,0,0,0,1,9.84,11.81,11.81,0,0,0,3.55,6.24,10.15,10.15,0,0,0,6.94,2.25,14.13,14.13,0,0,0,8-2.53,14.85,14.85,0,0,0,5.49-6.6q1.41-3.58,1.42-15.68V173.78c0-3.34.78-5.84,2.34-7.53a7.94,7.94,0,0,1,6.11-2.53,7.79,7.79,0,0,1,6,2.5q2.28,2.49,2.28,7.56v48.81c0,3.21-.73,5.61-2.19,7.22a7.8,7.8,0,0,1-11.35-.1C654.54,228.05,653.79,225.71,653.79,222.71Z"/><path class="cls-1" d="M686.38,222V148.91c0-3.37.75-5.93,2.25-7.65a7.64,7.64,0,0,1,6.08-2.6,8,8,0,0,1,6.17,2.57q2.34,2.55,2.34,7.68V222q0,5.13-2.37,7.68a8,8,0,0,1-6.14,2.56,7.6,7.6,0,0,1-6-2.65Q686.38,226.9,686.38,222Z"/><path class="cls-1" d="M721.55,165.2h1.85V155.08q0-4.08.22-6.39a9.36,9.36,0,0,1,1.2-4,7.59,7.59,0,0,1,2.84-2.81,8,8,0,0,1,4.13-1.08,8.33,8.33,0,0,1,5.8,2.41,7.1,7.1,0,0,1,2.19,3.92,35.3,35.3,0,0,1,.47,6.57V165.2h6.17a7.87,7.87,0,0,1,5.46,1.7,5.6,5.6,0,0,1,1.88,4.35,4.87,4.87,0,0,1-2.68,4.75,17.5,17.5,0,0,1-7.69,1.36h-3.14v31a51.65,51.65,0,0,0,.27,6.08,6.2,6.2,0,0,0,1.49,3.46,5.06,5.06,0,0,0,3.91,1.32,20.76,20.76,0,0,0,4-.52,21,21,0,0,1,4-.53,5.1,5.1,0,0,1,3.68,1.64,5.49,5.49,0,0,1,1.63,4c0,2.72-1.48,4.79-4.44,6.23s-7.22,2.16-12.78,2.16q-7.89,0-12-2.65a12.32,12.32,0,0,1-5.33-7.34,49.55,49.55,0,0,1-1.27-12.53V177.36h-2.22a8.05,8.05,0,0,1-5.56-1.73,5.65,5.65,0,0,1-1.91-4.38,5.43,5.43,0,0,1,2-4.35A8.74,8.74,0,0,1,721.55,165.2Z"/><path class="cls-1" d="M807.94,222.71a52.19,52.19,0,0,1-11.82,7.13,33.07,33.07,0,0,1-12.8,2.37,24.24,24.24,0,0,1-11.39-2.56,18.7,18.7,0,0,1-7.56-6.94,18.09,18.09,0,0,1-2.65-9.5,17,17,0,0,1,4.38-11.79,21.89,21.89,0,0,1,12-6.54c1.06-.25,3.72-.8,8-1.67s7.86-1.65,10.89-2.37,6.3-1.6,9.84-2.62q-.32-6.67-2.69-9.78t-9.84-3.12q-6.42,0-9.65,1.79a15.61,15.61,0,0,0-5.56,5.37,56.69,56.69,0,0,1-3.27,4.72c-.64.76-2,1.14-4.1,1.14a7.21,7.21,0,0,1-4.91-1.82,5.93,5.93,0,0,1-2.07-4.66,14.25,14.25,0,0,1,3.15-8.64q3.15-4.2,9.81-6.91t16.6-2.72q11.12,0,17.47,2.63a16.2,16.2,0,0,1,9,8.3q2.63,5.67,2.63,15c0,4,0,7.31,0,10.06s-.06,5.82-.1,9.2a33.84,33.84,0,0,0,1.58,9.9,31.25,31.25,0,0,1,1.57,6.63,6.18,6.18,0,0,1-2.44,4.72,8.14,8.14,0,0,1-5.52,2.13,7.46,7.46,0,0,1-5.12-2.43A36,36,0,0,1,807.94,222.71Zm-1.11-24.37a86.19,86.19,0,0,1-10.77,2.87q-7.06,1.5-9.78,2.22a13.31,13.31,0,0,0-5.18,2.77,7.1,7.1,0,0,0-2.47,5.77,8.56,8.56,0,0,0,2.9,6.51,10.72,10.72,0,0,0,7.59,2.69,19.72,19.72,0,0,0,9.22-2.19,14.62,14.62,0,0,0,6.21-5.65q2.28-3.83,2.28-12.59Z"/><path class="cls-1" d="M855.76,173v2a29.62,29.62,0,0,1,9.72-8.61,25.91,25.91,0,0,1,12.13-2.74,24.15,24.15,0,0,1,11.91,2.9,18.38,18.38,0,0,1,7.83,8.21,19,19,0,0,1,2.16,6.66,68.77,68.77,0,0,1,.5,9.13V222q0,5.06-2.32,7.65a7.66,7.66,0,0,1-6,2.59,7.76,7.76,0,0,1-6.11-2.65c-1.56-1.77-2.35-4.3-2.35-7.59V193.89q0-8.32-2.31-12.74t-9.23-4.41a13.64,13.64,0,0,0-8.2,2.68,15.41,15.41,0,0,0-5.43,7.38q-1.24,3.76-1.24,14.07V222q0,5.13-2.37,7.68a8,8,0,0,1-6.14,2.56,7.63,7.63,0,0,1-6-2.65Q840,226.9,840,222V173.28c0-3.21.7-5.6,2.09-7.19a7.29,7.29,0,0,1,5.74-2.37,7.77,7.77,0,0,1,4,1.05,7.5,7.5,0,0,1,2.87,3.14A11.12,11.12,0,0,1,855.76,173Z"/><path class="cls-1" d="M917.72,165.2h1.85V155.08q0-4.08.22-6.39a9.36,9.36,0,0,1,1.2-4,7.59,7.59,0,0,1,2.84-2.81,8,8,0,0,1,4.13-1.08,8.34,8.34,0,0,1,5.8,2.41,7.16,7.16,0,0,1,2.19,3.92,35.3,35.3,0,0,1,.47,6.57V165.2h6.17a7.87,7.87,0,0,1,5.46,1.7,5.6,5.6,0,0,1,1.88,4.35,4.89,4.89,0,0,1-2.68,4.75,17.53,17.53,0,0,1-7.69,1.36h-3.14v31a51.65,51.65,0,0,0,.27,6.08,6.27,6.27,0,0,0,1.48,3.46,5.1,5.1,0,0,0,3.92,1.32,20.76,20.76,0,0,0,4-.52,21,21,0,0,1,3.95-.53,5.07,5.07,0,0,1,3.67,1.64,5.5,5.5,0,0,1,1.64,4c0,2.72-1.48,4.79-4.44,6.23s-7.22,2.16-12.78,2.16q-7.89,0-12-2.65a12.38,12.38,0,0,1-5.34-7.34,50.08,50.08,0,0,1-1.26-12.53V177.36h-2.22a8.05,8.05,0,0,1-5.56-1.73,5.65,5.65,0,0,1-1.91-4.38,5.43,5.43,0,0,1,2-4.35A8.74,8.74,0,0,1,917.72,165.2Z"/><path class="cls-1" d="M1015.77,210.18a19.53,19.53,0,0,1-13.42,19.47,44.87,44.87,0,0,1-16.14,2.56,39.41,39.41,0,0,1-15.55-2.77q-6.48-2.77-9.56-6.95a14,14,0,0,1-3.09-8.36,6.47,6.47,0,0,1,2-4.75,6.78,6.78,0,0,1,5-2,5.85,5.85,0,0,1,4.07,1.29,14.17,14.17,0,0,1,2.71,3.64,18.42,18.42,0,0,0,6.21,6.73q3.6,2.22,9.84,2.22a14.24,14.24,0,0,0,8.3-2.25q3.24-2.25,3.24-5.15a7,7,0,0,0-3.37-6.48q-3.36-2-11.07-3.89A91.07,91.07,0,0,1,970.76,199a23.33,23.33,0,0,1-8.74-6.26,14.35,14.35,0,0,1-3.27-9.56,16.84,16.84,0,0,1,3-9.57,20.76,20.76,0,0,1,8.91-7.19,34.16,34.16,0,0,1,14.23-2.68,46.42,46.42,0,0,1,11.75,1.36,28.88,28.88,0,0,1,8.7,3.64,17.73,17.73,0,0,1,5.31,5.06,9.92,9.92,0,0,1,1.82,5.43,6.3,6.3,0,0,1-1.94,4.75,7.73,7.73,0,0,1-5.53,1.85,6.77,6.77,0,0,1-4.41-1.48,29.43,29.43,0,0,1-4.16-4.44,15.11,15.11,0,0,0-4.51-3.95,14.15,14.15,0,0,0-7-1.49,13.72,13.72,0,0,0-7.59,2c-2,1.29-3,2.91-3,4.84a5.23,5.23,0,0,0,2.23,4.35,18.2,18.2,0,0,0,6,2.81q3.76,1.11,10.37,2.72a55.11,55.11,0,0,1,12.8,4.56,21.32,21.32,0,0,1,7.53,6.27A13.84,13.84,0,0,1,1015.77,210.18Z"/></g></g></svg>